<svg xmlns="http://www.w3.org/2000/svg" viewBox="0 0 1024 1024">
  <defs>
    <linearGradient id="paper" x1="128" y1="260" x2="896" y2="930" gradientUnits="userSpaceOnUse">
      <stop offset="0" stop-color="#fffaf5"/>
      <stop offset="1" stop-color="#f8f4ee"/>
    </linearGradient>
    <linearGradient id="tile" x1="150" y1="340" x2="880" y2="790" gradientUnits="userSpaceOnUse">
      <stop offset="0" stop-color="#dce9ff"/>
      <stop offset="1" stop-color="#c5d8f7"/>
    </linearGradient>
    <linearGradient id="bubble" x1="662" y1="620" x2="930" y2="870" gradientUnits="userSpaceOnUse">
      <stop offset="0" stop-color="#ff674f"/>
      <stop offset="1" stop-color="#ff3f2d"/>
    </linearGradient>
    <filter id="softShadow" x="-20%" y="-20%" width="140%" height="140%">
      <feDropShadow dx="0" dy="18" stdDeviation="18" flood-color="#35271f" flood-opacity="0.16"/>
    </filter>
  </defs>

  <rect x="27" y="263" width="970" height="734" rx="166" fill="url(#paper)" filter="url(#softShadow)"/>
  <rect x="27" y="263" width="970" height="2" fill="#ffffff" opacity="0.9"/>

  <g fill="url(#tile)" opacity="0.95">
    <rect x="145" y="338" width="206" height="212" rx="47"/>
    <rect x="409" y="338" width="206" height="212" rx="47"/>
    <rect x="673" y="338" width="206" height="212" rx="47"/>
    <rect x="145" y="624" width="206" height="212" rx="47"/>
    <rect x="409" y="624" width="206" height="212" rx="47"/>
  </g>

  <g filter="url(#softShadow)">
    <path d="M787 614c77 0 138 54 145 126 8 80-56 153-143 159-31 2-61-5-87-19l-50 17c-14 5-28-8-23-22l18-53c-17-22-26-49-26-78 0-72 74-130 166-130z" fill="url(#bubble)"/>
    <path d="M788 663c8 38 27 59 65 67 11 2 11 18 0 20-38 8-57 29-65 67-2 11-18 11-20 0-8-38-27-59-65-67-11-2-11-18 0-20 38-8 57-29 65-67 2-11 18-11 20 0z" fill="#fffaf5"/>
  </g>
</svg>
